<mxfile host="app.diagrams.net" modified="2021-01-25T12:20:41.068Z" agent="5.0 (Windows NT 10.0; Win64; x64) AppleWebKit/537.36 (KHTML, like Gecko) Chrome/87.0.4280.141 Safari/537.36" etag="eWv4ck9E4jAzbyQcGQty" version="14.0.4" type="github">
  <diagram id="44acGGKEdY81lo-TAx_v" name="Page-1">
    <mxGraphModel dx="1752" dy="1215" grid="1" gridSize="10" guides="1" tooltips="1" connect="1" arrows="1" fold="1" page="1" pageScale="1" pageWidth="1920" pageHeight="1200" math="0" shadow="0">
      <root>
        <mxCell id="0" />
        <mxCell id="1" parent="0" />
        <mxCell id="3q4dHZZLZidGqc5jvgm3-16" value="&lt;font style=&quot;font-size: 16px&quot; color=&quot;#ff3333&quot;&gt;NEXUS&lt;/font&gt;" style="shape=cube;whiteSpace=wrap;html=1;boundedLbl=1;backgroundOutline=1;darkOpacity=0.05;darkOpacity2=0.1;align=center;verticalAlign=top;" vertex="1" parent="1">
          <mxGeometry x="480" y="40" width="360" height="160" as="geometry" />
        </mxCell>
        <mxCell id="3q4dHZZLZidGqc5jvgm3-17" value="&lt;p style=&quot;margin: 0px ; margin-top: 6px ; text-align: center&quot;&gt;&lt;b&gt;@pcbl/c&lt;/b&gt;&lt;/p&gt;&lt;hr&gt;&lt;p style=&quot;margin: 0px ; margin-left: 8px&quot;&gt;version: 1.0.0&lt;/p&gt;&lt;p style=&quot;margin: 0px ; margin-left: 8px&quot;&gt;version: 1.0.1&lt;br&gt;&lt;/p&gt;" style="align=left;overflow=fill;html=1;dropTarget=0;fillColor=#d5e8d4;strokeColor=#82b366;" vertex="1" parent="1">
          <mxGeometry x="730" y="90" width="100" height="100" as="geometry" />
        </mxCell>
        <mxCell id="3q4dHZZLZidGqc5jvgm3-18" value="" style="shape=component;jettyWidth=8;jettyHeight=4;" vertex="1" parent="3q4dHZZLZidGqc5jvgm3-17">
          <mxGeometry x="1" width="20" height="20" relative="1" as="geometry">
            <mxPoint x="-24" y="4" as="offset" />
          </mxGeometry>
        </mxCell>
        <mxCell id="3q4dHZZLZidGqc5jvgm3-19" value="&lt;p style=&quot;margin: 0px ; margin-top: 6px ; text-align: center&quot;&gt;&lt;b&gt;@pcbl/b&lt;/b&gt;&lt;/p&gt;&lt;hr&gt;&lt;p style=&quot;margin: 0px ; margin-left: 8px&quot;&gt;version: 1.0.0&lt;/p&gt;&lt;p style=&quot;margin: 0px ; margin-left: 8px&quot;&gt;version: 1.0.1&lt;br&gt;&lt;/p&gt;" style="align=left;overflow=fill;html=1;dropTarget=0;fillColor=#d5e8d4;strokeColor=#82b366;" vertex="1" parent="1">
          <mxGeometry x="620" y="90" width="100" height="100" as="geometry" />
        </mxCell>
        <mxCell id="3q4dHZZLZidGqc5jvgm3-20" value="" style="shape=component;jettyWidth=8;jettyHeight=4;" vertex="1" parent="3q4dHZZLZidGqc5jvgm3-19">
          <mxGeometry x="1" width="20" height="20" relative="1" as="geometry">
            <mxPoint x="-24" y="4" as="offset" />
          </mxGeometry>
        </mxCell>
        <mxCell id="3q4dHZZLZidGqc5jvgm3-21" value="&lt;p style=&quot;margin: 0px ; margin-top: 6px ; text-align: center&quot;&gt;&lt;b&gt;@pcbl/a&lt;/b&gt;&lt;/p&gt;&lt;hr&gt;&lt;p style=&quot;margin: 0px ; margin-left: 8px&quot;&gt;version: 1.0.0&lt;br&gt;&lt;br&gt;&lt;/p&gt;" style="align=left;overflow=fill;html=1;dropTarget=0;fillColor=#d5e8d4;strokeColor=#82b366;" vertex="1" parent="1">
          <mxGeometry x="510" y="90" width="100" height="100" as="geometry" />
        </mxCell>
        <mxCell id="3q4dHZZLZidGqc5jvgm3-22" value="" style="shape=component;jettyWidth=8;jettyHeight=4;" vertex="1" parent="3q4dHZZLZidGqc5jvgm3-21">
          <mxGeometry x="1" width="20" height="20" relative="1" as="geometry">
            <mxPoint x="-24" y="4" as="offset" />
          </mxGeometry>
        </mxCell>
        <mxCell id="3q4dHZZLZidGqc5jvgm3-25" value="develop" style="swimlane;" vertex="1" parent="1">
          <mxGeometry x="260" y="240" width="220" height="520" as="geometry" />
        </mxCell>
        <mxCell id="3q4dHZZLZidGqc5jvgm3-6" value="&lt;p style=&quot;margin: 0px ; margin-top: 6px ; text-align: center&quot;&gt;&lt;b&gt;EDU&lt;/b&gt;&lt;/p&gt;&lt;hr&gt;&lt;p style=&quot;margin: 0px ; margin-left: 8px&quot;&gt;@pcbl/a: 1.0.0&lt;/p&gt;&lt;p style=&quot;margin: 0px ; margin-left: 8px&quot;&gt;@pcbl/b: 1.0.0&lt;br&gt;@pcbl/c: 1.0.0&lt;/p&gt;" style="align=left;overflow=fill;html=1;dropTarget=0;fillColor=#dae8fc;strokeColor=#6c8ebf;" vertex="1" parent="3q4dHZZLZidGqc5jvgm3-25">
          <mxGeometry x="20" y="40" width="180" height="90" as="geometry" />
        </mxCell>
        <mxCell id="3q4dHZZLZidGqc5jvgm3-7" value="" style="shape=component;jettyWidth=8;jettyHeight=4;" vertex="1" parent="3q4dHZZLZidGqc5jvgm3-6">
          <mxGeometry x="1" width="20" height="20" relative="1" as="geometry">
            <mxPoint x="-24" y="4" as="offset" />
          </mxGeometry>
        </mxCell>
        <mxCell id="3q4dHZZLZidGqc5jvgm3-8" value="&lt;p style=&quot;margin: 0px ; margin-top: 6px ; text-align: center&quot;&gt;&lt;b&gt;SCHOOL21&lt;/b&gt;&lt;/p&gt;&lt;hr&gt;&lt;p style=&quot;margin: 0px ; margin-left: 8px&quot;&gt;@pcbl/a: 1.0.0&lt;/p&gt;&lt;p style=&quot;margin: 0px ; margin-left: 8px&quot;&gt;@pcbl/b: 1.0.1&lt;br&gt;@pcbl/c: 1.0.1&lt;/p&gt;" style="align=left;overflow=fill;html=1;dropTarget=0;fillColor=#dae8fc;strokeColor=#6c8ebf;" vertex="1" parent="3q4dHZZLZidGqc5jvgm3-25">
          <mxGeometry x="20" y="160" width="180" height="90" as="geometry" />
        </mxCell>
        <mxCell id="3q4dHZZLZidGqc5jvgm3-9" value="" style="shape=component;jettyWidth=8;jettyHeight=4;" vertex="1" parent="3q4dHZZLZidGqc5jvgm3-8">
          <mxGeometry x="1" width="20" height="20" relative="1" as="geometry">
            <mxPoint x="-24" y="4" as="offset" />
          </mxGeometry>
        </mxCell>
        <mxCell id="3q4dHZZLZidGqc5jvgm3-10" value="&lt;p style=&quot;margin: 0px ; margin-top: 6px ; text-align: center&quot;&gt;&lt;b&gt;@pcbl/a&lt;/b&gt;&lt;/p&gt;&lt;hr&gt;&lt;p style=&quot;margin: 0px ; margin-left: 8px&quot;&gt;version: 1.0.1&lt;/p&gt;" style="align=left;overflow=fill;html=1;dropTarget=0;fillColor=#d5e8d4;strokeColor=#82b366;" vertex="1" parent="3q4dHZZLZidGqc5jvgm3-25">
          <mxGeometry x="20" y="310" width="180" height="60" as="geometry" />
        </mxCell>
        <mxCell id="3q4dHZZLZidGqc5jvgm3-11" value="" style="shape=component;jettyWidth=8;jettyHeight=4;" vertex="1" parent="3q4dHZZLZidGqc5jvgm3-10">
          <mxGeometry x="1" width="20" height="20" relative="1" as="geometry">
            <mxPoint x="-24" y="4" as="offset" />
          </mxGeometry>
        </mxCell>
        <mxCell id="3q4dHZZLZidGqc5jvgm3-12" value="&lt;p style=&quot;margin: 0px ; margin-top: 6px ; text-align: center&quot;&gt;&lt;b&gt;@pcbl/b&lt;/b&gt;&lt;/p&gt;&lt;hr&gt;&lt;p style=&quot;margin: 0px ; margin-left: 8px&quot;&gt;version: 1.0.2&lt;/p&gt;" style="align=left;overflow=fill;html=1;dropTarget=0;fillColor=#d5e8d4;strokeColor=#82b366;" vertex="1" parent="3q4dHZZLZidGqc5jvgm3-25">
          <mxGeometry x="20" y="380" width="180" height="60" as="geometry" />
        </mxCell>
        <mxCell id="3q4dHZZLZidGqc5jvgm3-13" value="" style="shape=component;jettyWidth=8;jettyHeight=4;" vertex="1" parent="3q4dHZZLZidGqc5jvgm3-12">
          <mxGeometry x="1" width="20" height="20" relative="1" as="geometry">
            <mxPoint x="-24" y="4" as="offset" />
          </mxGeometry>
        </mxCell>
        <mxCell id="3q4dHZZLZidGqc5jvgm3-14" value="&lt;p style=&quot;margin: 0px ; margin-top: 6px ; text-align: center&quot;&gt;&lt;b&gt;@pcbl/c&lt;/b&gt;&lt;/p&gt;&lt;hr&gt;&lt;p style=&quot;margin: 0px ; margin-left: 8px&quot;&gt;version: 1.0.2&lt;/p&gt;" style="align=left;overflow=fill;html=1;dropTarget=0;fillColor=#d5e8d4;strokeColor=#82b366;" vertex="1" parent="3q4dHZZLZidGqc5jvgm3-25">
          <mxGeometry x="20" y="450" width="180" height="60" as="geometry" />
        </mxCell>
        <mxCell id="3q4dHZZLZidGqc5jvgm3-15" value="" style="shape=component;jettyWidth=8;jettyHeight=4;" vertex="1" parent="3q4dHZZLZidGqc5jvgm3-14">
          <mxGeometry x="1" width="20" height="20" relative="1" as="geometry">
            <mxPoint x="-24" y="4" as="offset" />
          </mxGeometry>
        </mxCell>
        <mxCell id="3q4dHZZLZidGqc5jvgm3-26" value="EDU-XXX.feature-branch" style="swimlane;startSize=23;" vertex="1" parent="1">
          <mxGeometry x="840" y="240" width="280" height="520" as="geometry" />
        </mxCell>
        <mxCell id="3q4dHZZLZidGqc5jvgm3-42" style="edgeStyle=orthogonalEdgeStyle;rounded=0;orthogonalLoop=1;jettySize=auto;html=1;exitX=1;exitY=0.5;exitDx=0;exitDy=0;entryX=1;entryY=0.5;entryDx=0;entryDy=0;" edge="1" parent="3q4dHZZLZidGqc5jvgm3-26" source="3q4dHZZLZidGqc5jvgm3-27" target="3q4dHZZLZidGqc5jvgm3-31">
          <mxGeometry relative="1" as="geometry" />
        </mxCell>
        <mxCell id="3q4dHZZLZidGqc5jvgm3-27" value="&lt;p style=&quot;margin: 0px ; margin-top: 6px ; text-align: center&quot;&gt;&lt;b&gt;EDU&lt;/b&gt;&lt;/p&gt;&lt;hr&gt;&lt;p style=&quot;margin: 0px ; margin-left: 8px&quot;&gt;@pcbl/a: 1.0.1&lt;/p&gt;&lt;p style=&quot;margin: 0px ; margin-left: 8px&quot;&gt;@pcbl/b: 1.0.0&lt;br&gt;@pcbl/c: 1.0.0&lt;/p&gt;" style="align=left;overflow=fill;html=1;dropTarget=0;fillColor=#dae8fc;strokeColor=#6c8ebf;" vertex="1" parent="3q4dHZZLZidGqc5jvgm3-26">
          <mxGeometry x="20" y="40" width="180" height="90" as="geometry" />
        </mxCell>
        <mxCell id="3q4dHZZLZidGqc5jvgm3-28" value="" style="shape=component;jettyWidth=8;jettyHeight=4;" vertex="1" parent="3q4dHZZLZidGqc5jvgm3-27">
          <mxGeometry x="1" width="20" height="20" relative="1" as="geometry">
            <mxPoint x="-24" y="4" as="offset" />
          </mxGeometry>
        </mxCell>
        <mxCell id="3q4dHZZLZidGqc5jvgm3-29" value="&lt;p style=&quot;margin: 0px ; margin-top: 6px ; text-align: center&quot;&gt;&lt;b&gt;SCHOOL21&lt;/b&gt;&lt;/p&gt;&lt;hr&gt;&lt;p style=&quot;margin: 0px ; margin-left: 8px&quot;&gt;@pcbl/a: 1.0.0&lt;/p&gt;&lt;p style=&quot;margin: 0px ; margin-left: 8px&quot;&gt;@pcbl/b: 1.0.1&lt;br&gt;@pcbl/c: 1.0.1&lt;/p&gt;" style="align=left;overflow=fill;html=1;dropTarget=0;fillColor=#dae8fc;strokeColor=#6c8ebf;" vertex="1" parent="3q4dHZZLZidGqc5jvgm3-26">
          <mxGeometry x="20" y="160" width="180" height="90" as="geometry" />
        </mxCell>
        <mxCell id="3q4dHZZLZidGqc5jvgm3-30" value="" style="shape=component;jettyWidth=8;jettyHeight=4;" vertex="1" parent="3q4dHZZLZidGqc5jvgm3-29">
          <mxGeometry x="1" width="20" height="20" relative="1" as="geometry">
            <mxPoint x="-24" y="4" as="offset" />
          </mxGeometry>
        </mxCell>
        <mxCell id="3q4dHZZLZidGqc5jvgm3-31" value="&lt;p style=&quot;margin: 0px ; margin-top: 6px ; text-align: center&quot;&gt;&lt;b&gt;@pcbl/a&lt;/b&gt;&lt;/p&gt;&lt;hr&gt;&lt;p style=&quot;margin: 0px ; margin-left: 8px&quot;&gt;version: 1.0.1&lt;/p&gt;" style="align=left;overflow=fill;html=1;dropTarget=0;fillColor=#d5e8d4;strokeColor=#82b366;" vertex="1" parent="3q4dHZZLZidGqc5jvgm3-26">
          <mxGeometry x="20" y="310" width="180" height="60" as="geometry" />
        </mxCell>
        <mxCell id="3q4dHZZLZidGqc5jvgm3-32" value="" style="shape=component;jettyWidth=8;jettyHeight=4;" vertex="1" parent="3q4dHZZLZidGqc5jvgm3-31">
          <mxGeometry x="1" width="20" height="20" relative="1" as="geometry">
            <mxPoint x="-24" y="4" as="offset" />
          </mxGeometry>
        </mxCell>
        <mxCell id="3q4dHZZLZidGqc5jvgm3-33" value="&lt;p style=&quot;margin: 0px ; margin-top: 6px ; text-align: center&quot;&gt;&lt;b&gt;@pcbl/b&lt;/b&gt;&lt;/p&gt;&lt;hr&gt;&lt;p style=&quot;margin: 0px ; margin-left: 8px&quot;&gt;version: 1.0.2&lt;/p&gt;" style="align=left;overflow=fill;html=1;dropTarget=0;fillColor=#d5e8d4;strokeColor=#82b366;" vertex="1" parent="3q4dHZZLZidGqc5jvgm3-26">
          <mxGeometry x="20" y="380" width="180" height="60" as="geometry" />
        </mxCell>
        <mxCell id="3q4dHZZLZidGqc5jvgm3-34" value="" style="shape=component;jettyWidth=8;jettyHeight=4;" vertex="1" parent="3q4dHZZLZidGqc5jvgm3-33">
          <mxGeometry x="1" width="20" height="20" relative="1" as="geometry">
            <mxPoint x="-24" y="4" as="offset" />
          </mxGeometry>
        </mxCell>
        <mxCell id="3q4dHZZLZidGqc5jvgm3-35" value="&lt;p style=&quot;margin: 0px ; margin-top: 6px ; text-align: center&quot;&gt;&lt;b&gt;@pcbl/c&lt;/b&gt;&lt;/p&gt;&lt;hr&gt;&lt;p style=&quot;margin: 0px ; margin-left: 8px&quot;&gt;version: 1.0.2&lt;/p&gt;" style="align=left;overflow=fill;html=1;dropTarget=0;fillColor=#d5e8d4;strokeColor=#82b366;" vertex="1" parent="3q4dHZZLZidGqc5jvgm3-26">
          <mxGeometry x="20" y="450" width="180" height="60" as="geometry" />
        </mxCell>
        <mxCell id="3q4dHZZLZidGqc5jvgm3-36" value="" style="shape=component;jettyWidth=8;jettyHeight=4;" vertex="1" parent="3q4dHZZLZidGqc5jvgm3-35">
          <mxGeometry x="1" width="20" height="20" relative="1" as="geometry">
            <mxPoint x="-24" y="4" as="offset" />
          </mxGeometry>
        </mxCell>
        <mxCell id="3q4dHZZLZidGqc5jvgm3-37" style="edgeStyle=orthogonalEdgeStyle;rounded=0;orthogonalLoop=1;jettySize=auto;html=1;exitX=1;exitY=0.5;exitDx=0;exitDy=0;entryX=0.501;entryY=1.003;entryDx=0;entryDy=0;entryPerimeter=0;" edge="1" parent="1" source="3q4dHZZLZidGqc5jvgm3-6" target="3q4dHZZLZidGqc5jvgm3-16">
          <mxGeometry relative="1" as="geometry" />
        </mxCell>
        <mxCell id="3q4dHZZLZidGqc5jvgm3-40" value="dependencies" style="edgeLabel;html=1;align=center;verticalAlign=middle;resizable=0;points=[];" vertex="1" connectable="0" parent="3q4dHZZLZidGqc5jvgm3-37">
          <mxGeometry x="-0.2921" y="-1" relative="1" as="geometry">
            <mxPoint x="-15" y="-1" as="offset" />
          </mxGeometry>
        </mxCell>
        <mxCell id="3q4dHZZLZidGqc5jvgm3-43" style="edgeStyle=orthogonalEdgeStyle;rounded=0;orthogonalLoop=1;jettySize=auto;html=1;exitX=0;exitY=0.5;exitDx=0;exitDy=0;" edge="1" parent="1" source="3q4dHZZLZidGqc5jvgm3-27" target="3q4dHZZLZidGqc5jvgm3-16">
          <mxGeometry relative="1" as="geometry" />
        </mxCell>
        <mxCell id="3q4dHZZLZidGqc5jvgm3-47" value="other dependencies" style="edgeLabel;html=1;align=center;verticalAlign=middle;resizable=0;points=[];" vertex="1" connectable="0" parent="3q4dHZZLZidGqc5jvgm3-43">
          <mxGeometry x="-0.2" y="2" relative="1" as="geometry">
            <mxPoint as="offset" />
          </mxGeometry>
        </mxCell>
        <mxCell id="3q4dHZZLZidGqc5jvgm3-44" style="edgeStyle=orthogonalEdgeStyle;rounded=0;orthogonalLoop=1;jettySize=auto;html=1;exitX=0;exitY=0.5;exitDx=0;exitDy=0;" edge="1" parent="1" source="3q4dHZZLZidGqc5jvgm3-29" target="3q4dHZZLZidGqc5jvgm3-16">
          <mxGeometry relative="1" as="geometry" />
        </mxCell>
        <mxCell id="3q4dHZZLZidGqc5jvgm3-48" value="dependencies" style="edgeLabel;html=1;align=center;verticalAlign=middle;resizable=0;points=[];" vertex="1" connectable="0" parent="3q4dHZZLZidGqc5jvgm3-44">
          <mxGeometry x="-0.4337" y="-4" relative="1" as="geometry">
            <mxPoint as="offset" />
          </mxGeometry>
        </mxCell>
        <mxCell id="3q4dHZZLZidGqc5jvgm3-45" style="edgeStyle=orthogonalEdgeStyle;rounded=0;orthogonalLoop=1;jettySize=auto;html=1;exitX=1;exitY=0.5;exitDx=0;exitDy=0;" edge="1" parent="1" source="3q4dHZZLZidGqc5jvgm3-8" target="3q4dHZZLZidGqc5jvgm3-16">
          <mxGeometry relative="1" as="geometry" />
        </mxCell>
        <mxCell id="3q4dHZZLZidGqc5jvgm3-46" value="dependecies" style="edgeLabel;html=1;align=center;verticalAlign=middle;resizable=0;points=[];" vertex="1" connectable="0" parent="3q4dHZZLZidGqc5jvgm3-45">
          <mxGeometry x="-0.6719" y="-1" relative="1" as="geometry">
            <mxPoint x="27" y="-1" as="offset" />
          </mxGeometry>
        </mxCell>
      </root>
    </mxGraphModel>
  </diagram>
</mxfile>
